<svg width="176" height="58" viewBox="0 0 176 58" fill="none" xmlns="http://www.w3.org/2000/svg">
<rect x="0.780518" y="0.556458" width="175" height="57" rx="25" fill="#F56735"/>
<path d="M61.5945 33.5565V20.9565H69.5325V22.7205H63.5385V26.3385H69.0285V28.1025H63.5385V31.7925H69.6225V33.5565H61.5945ZM72.0632 33.5565V24.6825H73.8812V26.0145H74.1692C74.3372 25.6545 74.6372 25.3185 75.0692 25.0065C75.5012 24.6945 76.1432 24.5385 76.9952 24.5385C77.6672 24.5385 78.2612 24.6885 78.7772 24.9885C79.3052 25.2885 79.7192 25.7145 80.0192 26.2665C80.3192 26.8065 80.4692 27.4605 80.4692 28.2285V33.5565H78.6152V28.3725C78.6152 27.6045 78.4232 27.0405 78.0392 26.6805C77.6552 26.3085 77.1272 26.1225 76.4552 26.1225C75.6872 26.1225 75.0692 26.3745 74.6012 26.8785C74.1452 27.3825 73.9172 28.1145 73.9172 29.0745V33.5565H72.0632ZM86.5813 33.5565C86.0413 33.5565 85.6093 33.3945 85.2853 33.0705C84.9733 32.7465 84.8173 32.3145 84.8173 31.7745V26.2485H82.3693V24.6825H84.8173V21.7485H86.6713V24.6825H89.3173V26.2485H86.6713V31.4505C86.6713 31.8105 86.8393 31.9905 87.1753 31.9905H89.0293V33.5565H86.5813ZM91.8555 33.5565V24.6825H93.6735V25.7265H93.9615C94.1055 25.3545 94.3335 25.0845 94.6455 24.9165C94.9695 24.7365 95.3655 24.6465 95.8335 24.6465H96.8955V26.3205H95.7615C95.1615 26.3205 94.6695 26.4885 94.2855 26.8245C93.9015 27.1485 93.7095 27.6525 93.7095 28.3365V33.5565H91.8555ZM101.684 33.8085C101.048 33.8085 100.478 33.7005 99.9743 33.4845C99.4823 33.2685 99.0863 32.9505 98.7863 32.5305C98.4983 32.1105 98.3543 31.6005 98.3543 31.0005C98.3543 30.3885 98.4983 29.8845 98.7863 29.4885C99.0863 29.0805 99.4883 28.7745 99.9923 28.5705C100.508 28.3665 101.09 28.2645 101.738 28.2645H104.438V27.6885C104.438 27.1725 104.282 26.7585 103.97 26.4465C103.658 26.1345 103.178 25.9785 102.53 25.9785C101.894 25.9785 101.408 26.1285 101.072 26.4285C100.736 26.7285 100.514 27.1185 100.406 27.5985L98.6783 27.0405C98.8223 26.5605 99.0503 26.1285 99.3623 25.7445C99.6863 25.3485 100.112 25.0305 100.64 24.7905C101.168 24.5505 101.804 24.4305 102.548 24.4305C103.7 24.4305 104.606 24.7245 105.266 25.3125C105.926 25.9005 106.256 26.7345 106.256 27.8145V31.4685C106.256 31.8285 106.424 32.0085 106.76 32.0085H107.516V33.5565H106.13C105.71 33.5565 105.368 33.4485 105.104 33.2325C104.84 33.0165 104.708 32.7225 104.708 32.3505V32.2965H104.438C104.342 32.4765 104.198 32.6865 104.006 32.9265C103.814 33.1665 103.532 33.3765 103.16 33.5565C102.788 33.7245 102.296 33.8085 101.684 33.8085ZM101.954 32.2785C102.698 32.2785 103.298 32.0685 103.754 31.6485C104.21 31.2165 104.438 30.6285 104.438 29.8845V29.7045H101.846C101.354 29.7045 100.958 29.8125 100.658 30.0285C100.358 30.2325 100.208 30.5385 100.208 30.9465C100.208 31.3545 100.364 31.6785 100.676 31.9185C100.988 32.1585 101.414 32.2785 101.954 32.2785ZM109.679 33.5565V24.6825H111.497V25.7265H111.785C111.929 25.3545 112.157 25.0845 112.469 24.9165C112.793 24.7365 113.189 24.6465 113.657 24.6465H114.719V26.3205H113.585C112.985 26.3205 112.493 26.4885 112.109 26.8245C111.725 27.1485 111.533 27.6525 111.533 28.3365V33.5565H109.679Z" fill="#191A23"/>
</svg>
