<svg width="36" height="35" viewBox="0 0 36 35" fill="none" xmlns="http://www.w3.org/2000/svg">
<path id="Vector" d="M32.7778 35L20.5278 22.75C19.5556 23.5278 18.4375 24.1435 17.1736 24.5972C15.9097 25.0509 14.5648 25.2778 13.1389 25.2778C9.60648 25.2778 6.6169 24.0544 4.17014 21.6076C1.72338 19.1609 0.5 16.1713 0.5 12.6389C0.5 9.10648 1.72338 6.1169 4.17014 3.67014C6.6169 1.22338 9.60648 0 13.1389 0C16.6713 0 19.6609 1.22338 22.1076 3.67014C24.5544 6.1169 25.7778 9.10648 25.7778 12.6389C25.7778 14.0648 25.5509 15.4097 25.0972 16.6736C24.6435 17.9375 24.0278 19.0556 23.25 20.0278L35.5 32.2778L32.7778 35ZM13.1389 21.3889C15.5694 21.3889 17.6354 20.5382 19.3368 18.8368C21.0382 17.1354 21.8889 15.0694 21.8889 12.6389C21.8889 10.2083 21.0382 8.14236 19.3368 6.44097C17.6354 4.73958 15.5694 3.88889 13.1389 3.88889C10.7083 3.88889 8.64236 4.73958 6.94097 6.44097C5.23958 8.14236 4.38889 10.2083 4.38889 12.6389C4.38889 15.0694 5.23958 17.1354 6.94097 18.8368C8.64236 20.5382 10.7083 21.3889 13.1389 21.3889Z" fill="#191A23"/>
</svg>
