<svg width="107" height="62" viewBox="0 0 107 62" fill="none" xmlns="http://www.w3.org/2000/svg">
<g id="Logo">
<path id="Vector" d="M91.1025 7.05018C85.7065 4.29234 79.1945 2.11807 72.0497 0.819174C70.2806 0.509949 68.5058 0.217773 66.6682 0.0197605C66.6025 0.010073 66.5236 0.0089125 66.4562 0C63.847 1.42988 61.445 3.00661 59.2838 4.70076C61.6805 4.44152 64.1232 4.27529 66.6181 4.20902C75.3352 3.9711 83.623 5.03053 91.1025 7.05018Z" fill="white"/>
<path id="Vector_2" d="M57.0578 19.9833C60.4466 18.1241 64.1577 16.4629 68.1627 15.0594C78.0291 11.6037 88.3575 10.1459 98.1033 10.4617C89.712 7.71316 80.0833 6.26585 69.9041 6.53942C64.8856 6.67582 60.0404 7.22413 55.4474 8.12546C53.1592 10.4078 51.2664 12.8619 49.8289 15.4442C52.0428 17.06 54.4574 18.5825 57.0578 19.9833Z" fill="white"/>
<path id="Vector_3" d="M46.6384 27.1863C49.3155 24.8527 52.3869 22.6893 55.7899 20.72C53.4375 19.4684 51.2381 18.1215 49.1944 16.697C47.5553 20.0249 46.6546 23.5453 46.6384 27.1863Z" fill="white"/>
<path id="Vector_4" d="M49.149 13.6888C50.2831 11.9447 51.5374 10.2765 52.8924 8.68774C50.0022 9.34998 47.2081 10.1405 44.5539 11.0747C45.8134 12.2667 47.1752 13.418 48.6221 14.5336C48.7944 14.2495 48.9672 13.969 49.149 13.6888Z" fill="white"/>
<path id="Vector_5" d="M106.132 42.3049C106.01 42.3049 105.891 42.3076 105.767 42.3076C100.759 42.3076 97.1279 39.9303 97.1279 36.6517V36.5792C97.1279 33.4443 100.766 30.9887 105.411 30.9887C105.659 30.9887 105.901 30.9953 106.132 31.0046V27.2381C105.916 27.2311 105.694 27.2311 105.469 27.2311C96.3744 27.2311 89.5074 31.2774 89.5074 36.6513V36.7214C89.5074 41.9612 96.4653 46.0687 105.353 46.0687C105.624 46.0687 105.874 46.0648 106.132 46.059V42.3049Z" fill="white"/>
<path id="Vector_6" d="M14.1539 34.4111C8.78443 33.5629 8.02938 33.1529 8.02938 31.8939V31.837C8.02938 30.9081 9.4079 30.1707 12.0224 30.1707C13.3581 30.1707 15.1011 30.4385 16.3235 30.7756V26.758C15.1862 26.6127 13.4396 26.4449 12.1133 26.4449C5.7684 26.4449 1.24434 28.7459 1.24434 32.2252V32.2779C1.24434 36.0816 5.27808 37.1492 11.5363 38.1354C16.7276 38.9573 17.2174 39.5033 17.2174 40.5724V40.6262C17.2174 41.7484 15.5308 42.4316 12.7346 42.4316C9.18388 42.4316 6.83309 41.5295 4.03897 40.1062L0 43.0896C3.72775 45.1422 7.89832 46.1562 12.6015 46.1562C19.3009 46.1562 24.0061 44.0219 24.0061 40.2159V40.1628C24.0056 36.8217 20.4502 35.4248 14.1539 34.4111Z" fill="white"/>
<path id="Vector_7" d="M29.8063 36.1072C30.3436 34.0837 32.1759 32.7635 34.9899 32.7635C37.8441 32.7635 39.6325 34.1127 40.0366 36.1072H29.8063ZM34.9904 29.1888C28.0216 29.1888 23.155 32.8851 23.155 37.365V37.4235C23.155 42.2301 28.4685 45.5421 35.6593 45.5421C35.8666 45.5421 36.5339 45.5223 36.7407 45.5184V41.9368C36.57 41.9433 35.9251 41.967 35.7455 41.967C32.7091 41.967 30.5666 40.9122 29.8935 38.8906H46.4092C46.4489 38.4783 46.4948 38.2152 46.4948 37.7723V37.7196C46.4943 33.2622 42.9811 29.1888 34.9904 29.1888Z" fill="white"/>
<path id="Vector_8" d="M68.0321 36.9353C68.0321 32.6868 64.531 29.3694 57.1251 29.3694C49.7098 29.3694 46.2086 32.6864 46.2086 36.9353V45.253H53.0689V36.6273C53.1952 35.0563 54.0286 33.1983 57.1256 33.1983C60.2147 33.1983 61.1165 35.0563 61.2371 36.6273V45.253H68.0326L68.0321 36.9353Z" fill="white"/>
<path id="Vector_9" d="M79.1904 29.2787C78.8896 29.2787 77.851 29.2815 77.568 29.2884V33.089C78.8891 33.0979 80.7005 33.265 81.5088 33.5777C82.6936 34.0431 83.3071 34.8231 83.3374 35.879C81.7213 35.7399 79.888 35.6434 78.298 35.6128C71.8158 35.4877 68.6118 37.0803 67.969 39.6254C67.957 39.6738 67.9455 39.7219 67.9335 39.7691C67.9298 39.7866 67.9283 39.8021 67.9241 39.8191C67.8724 40.0625 67.8442 40.3174 67.8442 40.5883V40.6453C67.8442 43.7561 71.5521 45.4569 76.0573 45.4569C79.3648 45.4569 81.644 44.6613 83.293 43.4601V45.2701H89.8567V36.0476C89.8572 31.7948 86.5989 29.2787 79.1904 29.2787ZM83.3609 39.6622C82.7709 41.9593 79.5768 42.3038 78.852 42.3301C73.6857 42.5336 73.5024 39.9117 75.2386 39.1139C77.5732 38.0393 83.3823 38.6419 83.3823 38.6419C83.3823 38.8004 83.4361 39.1902 83.3609 39.6622Z" fill="white"/>
<g id="FOOD">
<path d="M36.1662 50.8533V57.465H34.9852V50.8533H36.1662ZM39.8989 53.8277V54.5452H35.9092V53.8277H39.8989ZM40.5047 50.8533V51.5708H35.9092V50.8533H40.5047Z" fill="white"/>
<path d="M52.5313 53.9503V54.3681C52.5313 54.8646 52.4477 55.3096 52.2804 55.7031C52.1131 56.0967 51.8725 56.4312 51.5583 56.7067C51.2442 56.9822 50.8669 57.1926 50.4263 57.3379C49.9898 57.4832 49.5003 57.5559 48.9577 57.5559C48.4315 57.5559 47.948 57.4832 47.5075 57.3379C47.071 57.1926 46.6916 56.9822 46.3693 56.7067C46.0511 56.4312 45.8043 56.0967 45.6289 55.7031C45.4535 55.3096 45.3658 54.8646 45.3658 54.3681V53.9503C45.3658 53.4538 45.4514 53.0103 45.6228 52.6198C45.7982 52.2262 46.045 51.8917 46.3632 51.6162C46.6814 51.3377 47.0587 51.1258 47.4952 50.9805C47.9358 50.8352 48.4192 50.7625 48.9455 50.7625C49.488 50.7625 49.9776 50.8352 50.4141 50.9805C50.8546 51.1258 51.232 51.3377 51.5461 51.6162C51.8643 51.8917 52.107 52.2262 52.2743 52.6198C52.4456 53.0103 52.5313 53.4538 52.5313 53.9503ZM51.3625 54.3681V53.9412C51.3625 53.5477 51.3075 53.1995 51.1973 52.8968C51.0912 52.5941 50.9342 52.3398 50.7261 52.1339C50.5181 51.928 50.2631 51.7721 49.9612 51.6662C49.6634 51.5602 49.3248 51.5072 48.9455 51.5072C48.5783 51.5072 48.2458 51.5602 47.948 51.6662C47.6543 51.7721 47.4014 51.928 47.1893 52.1339C46.9812 52.3398 46.8201 52.5941 46.7059 52.8968C46.5916 53.1995 46.5345 53.5477 46.5345 53.9412V54.3681C46.5345 54.7647 46.5916 55.1158 46.7059 55.4216C46.8201 55.7243 46.9833 55.9801 47.1954 56.189C47.4116 56.3949 47.6666 56.5508 47.9603 56.6567C48.2581 56.7627 48.5905 56.8157 48.9577 56.8157C49.3412 56.8157 49.6818 56.7627 49.9796 56.6567C50.2774 56.5508 50.5283 56.3949 50.7323 56.189C50.9403 55.9801 51.0974 55.7243 51.2034 55.4216C51.3095 55.1158 51.3625 54.7647 51.3625 54.3681Z" fill="white"/>
<path d="M64.9189 53.9503V54.3681C64.9189 54.8646 64.8353 55.3096 64.668 55.7031C64.5007 56.0967 64.2601 56.4312 63.9459 56.7067C63.6318 56.9822 63.2545 57.1926 62.8139 57.3379C62.3774 57.4832 61.8879 57.5559 61.3453 57.5559C60.8191 57.5559 60.3356 57.4832 59.8951 57.3379C59.4586 57.1926 59.0792 56.9822 58.7569 56.7067C58.4387 56.4312 58.1919 56.0967 58.0165 55.7031C57.8411 55.3096 57.7534 54.8646 57.7534 54.3681V53.9503C57.7534 53.4538 57.839 53.0103 58.0104 52.6198C58.1858 52.2262 58.4326 51.8917 58.7508 51.6162C59.069 51.3377 59.4463 51.1258 59.8828 50.9805C60.3234 50.8352 60.8068 50.7625 61.3331 50.7625C61.8756 50.7625 62.3652 50.8352 62.8017 50.9805C63.2422 51.1258 63.6196 51.3377 63.9337 51.6162C64.2519 51.8917 64.4946 52.2262 64.6619 52.6198C64.8332 53.0103 64.9189 53.4538 64.9189 53.9503ZM63.7501 54.3681V53.9412C63.7501 53.5477 63.6951 53.1995 63.5849 52.8968C63.4788 52.5941 63.3218 52.3398 63.1137 52.1339C62.9057 51.928 62.6507 51.7721 62.3488 51.6662C62.051 51.5602 61.7125 51.5072 61.3331 51.5072C60.9659 51.5072 60.6334 51.5602 60.3356 51.6662C60.0419 51.7721 59.789 51.928 59.5769 52.1339C59.3688 52.3398 59.2077 52.5941 59.0935 52.8968C58.9792 53.1995 58.9221 53.5477 58.9221 53.9412V54.3681C58.9221 54.7647 58.9792 55.1158 59.0935 55.4216C59.2077 55.7243 59.3709 55.9801 59.583 56.189C59.7992 56.3949 60.0542 56.5508 60.3479 56.6567C60.6457 56.7627 60.9782 56.8157 61.3453 56.8157C61.7288 56.8157 62.0694 56.7627 62.3672 56.6567C62.665 56.5508 62.9159 56.3949 63.1199 56.189C63.3279 55.9801 63.485 55.7243 63.591 55.4216C63.6971 55.1158 63.7501 54.7647 63.7501 54.3681Z" fill="white"/>
<path d="M72.8579 57.465H70.9977L71.0099 56.7521H72.8579C73.4943 56.7521 74.0246 56.6537 74.4489 56.4569C74.8731 56.2571 75.1913 55.9786 75.4034 55.6214C75.6197 55.2611 75.7278 54.8403 75.7278 54.359V53.9548C75.7278 53.5764 75.6666 53.2404 75.5442 52.9467C75.4218 52.6501 75.2423 52.4003 75.0057 52.1975C74.7691 51.9916 74.4795 51.8357 74.1368 51.7297C73.7982 51.6238 73.4086 51.5708 72.968 51.5708H70.9609V50.8533H72.968C73.5514 50.8533 74.0837 50.926 74.5651 51.0713C75.0465 51.2136 75.4606 51.421 75.8073 51.6934C76.1581 51.9629 76.4274 52.2898 76.615 52.6743C76.8027 53.0557 76.8965 53.4856 76.8965 53.9639V54.359C76.8965 54.8373 76.8027 55.2687 76.615 55.6532C76.4274 56.0346 76.1561 56.3601 75.8012 56.6295C75.4504 56.8989 75.0261 57.1063 74.5284 57.2516C74.0348 57.3939 73.4779 57.465 72.8579 57.465ZM71.6279 50.8533V57.465H70.4469V50.8533H71.6279Z" fill="white"/>
</g>
</g>
</svg>
