<svg width="107" height="62" viewBox="0 0 107 62" fill="none" xmlns="http://www.w3.org/2000/svg">
<g id="Logo">
<path id="Vector" d="M91.1025 7.05018C85.7064 4.29234 79.1945 2.11807 72.0496 0.819174C70.2805 0.509949 68.5057 0.217773 66.6682 0.0197605C66.6024 0.010073 66.5235 0.0089125 66.4562 0C63.8469 1.42988 61.4449 3.00661 59.2837 4.70076C61.6804 4.44152 64.1231 4.27529 66.6181 4.20902C75.3351 3.9711 83.6229 5.03053 91.1025 7.05018Z" fill="#191A23"/>
<path id="Vector_2" d="M57.0578 19.9833C60.4466 18.1241 64.1577 16.4629 68.1627 15.0594C78.0291 11.6037 88.3575 10.1459 98.1033 10.4617C89.712 7.71316 80.0833 6.26585 69.9041 6.53942C64.8856 6.67582 60.0404 7.22413 55.4474 8.12546C53.1592 10.4078 51.2664 12.8619 49.8289 15.4442C52.0428 17.06 54.4574 18.5825 57.0578 19.9833Z" fill="#191A23"/>
<path id="Vector_3" d="M46.6384 27.1863C49.3156 24.8527 52.387 22.6893 55.7899 20.72C53.4376 19.4684 51.2382 18.1215 49.1944 16.697C47.5553 20.0249 46.6546 23.5453 46.6384 27.1863Z" fill="#191A23"/>
<path id="Vector_4" d="M49.149 13.6888C50.2832 11.9447 51.5374 10.2765 52.8924 8.68774C50.0022 9.34998 47.2081 10.1405 44.554 11.0747C45.8134 12.2667 47.1752 13.418 48.6222 14.5336C48.7945 14.2495 48.9673 13.969 49.149 13.6888Z" fill="#191A23"/>
<path id="Vector_5" d="M106.132 42.3049C106.01 42.3049 105.891 42.3076 105.767 42.3076C100.758 42.3076 97.1278 39.9303 97.1278 36.6517V36.5792C97.1278 33.4443 100.766 30.9887 105.411 30.9887C105.658 30.9887 105.901 30.9953 106.132 31.0046V27.2381C105.916 27.2311 105.693 27.2311 105.469 27.2311C96.3743 27.2311 89.5073 31.2774 89.5073 36.6513V36.7214C89.5073 41.9612 96.4652 46.0687 105.353 46.0687C105.624 46.0687 105.874 46.0648 106.132 46.059V42.3049Z" fill="#191A23"/>
<path id="Vector_6" d="M14.1539 34.4111C8.78443 33.5629 8.02938 33.1529 8.02938 31.8939V31.837C8.02938 30.9081 9.4079 30.1707 12.0224 30.1707C13.3581 30.1707 15.1011 30.4385 16.3235 30.7756V26.758C15.1862 26.6127 13.4396 26.4449 12.1133 26.4449C5.7684 26.4449 1.24434 28.7459 1.24434 32.2252V32.2779C1.24434 36.0816 5.27808 37.1492 11.5363 38.1354C16.7276 38.9573 17.2174 39.5033 17.2174 40.5724V40.6262C17.2174 41.7484 15.5308 42.4316 12.7346 42.4316C9.18388 42.4316 6.83309 41.5295 4.03897 40.1062L0 43.0896C3.72775 45.1422 7.89832 46.1562 12.6015 46.1562C19.3009 46.1562 24.0061 44.0219 24.0061 40.2159V40.1628C24.0056 36.8217 20.4502 35.4248 14.1539 34.4111Z" fill="#191A23"/>
<path id="Vector_7" d="M29.8064 36.1072C30.3437 34.0837 32.176 32.7635 34.9899 32.7635C37.8441 32.7635 39.6325 34.1127 40.0367 36.1072H29.8064ZM34.9905 29.1888C28.0216 29.1888 23.155 32.8851 23.155 37.365V37.4235C23.155 42.2301 28.4686 45.5421 35.6594 45.5421C35.8667 45.5421 36.534 45.5223 36.7408 45.5184V41.9368C36.57 41.9433 35.9252 41.967 35.7455 41.967C32.7091 41.967 30.5667 40.9122 29.8936 38.8906H46.4092C46.4489 38.4783 46.4949 38.2152 46.4949 37.7723V37.7196C46.4944 33.2622 42.9812 29.1888 34.9905 29.1888Z" fill="#191A23"/>
<path id="Vector_8" d="M68.0322 36.9353C68.0322 32.6868 64.5311 29.3694 57.1252 29.3694C49.7099 29.3694 46.2087 32.6864 46.2087 36.9353V45.253H53.069V36.6273C53.1953 35.0563 54.0287 33.1983 57.1257 33.1983C60.2148 33.1983 61.1166 35.0563 61.2372 36.6273V45.253H68.0327L68.0322 36.9353Z" fill="#191A23"/>
<path id="Vector_9" d="M79.1904 29.2787C78.8896 29.2787 77.8511 29.2815 77.568 29.2884V33.089C78.8891 33.0979 80.7005 33.265 81.5088 33.5777C82.6936 34.0431 83.3072 34.8231 83.3375 35.879C81.7214 35.7399 79.888 35.6434 78.298 35.6128C71.8159 35.4877 68.6118 37.0803 67.969 39.6254C67.957 39.6738 67.9455 39.7219 67.9335 39.7691C67.9299 39.7866 67.9283 39.8021 67.9241 39.8191C67.8724 40.0625 67.8442 40.3174 67.8442 40.5883V40.6453C67.8442 43.7561 71.5522 45.4569 76.0574 45.4569C79.3648 45.4569 81.6441 44.6613 83.2931 43.4601V45.2701H89.8567V36.0476C89.8573 31.7948 86.5989 29.2787 79.1904 29.2787ZM83.361 39.6622C82.7709 41.9593 79.5768 42.3038 78.852 42.3301C73.6857 42.5336 73.5024 39.9117 75.2387 39.1139C77.5733 38.0393 83.3824 38.6419 83.3824 38.6419C83.3824 38.8004 83.4362 39.1902 83.361 39.6622Z" fill="#191A23"/>
<g id="FOOD">
<path d="M36.1661 50.8533V57.465H34.9851V50.8533H36.1661ZM39.8988 53.8277V54.5452H35.9091V53.8277H39.8988ZM40.5046 50.8533V51.5708H35.9091V50.8533H40.5046Z" fill="black"/>
<path d="M52.5312 53.9503V54.3681C52.5312 54.8646 52.4475 55.3096 52.2803 55.7031C52.113 56.0967 51.8723 56.4312 51.5582 56.7067C51.2441 56.9822 50.8668 57.1926 50.4262 57.3379C49.9897 57.4832 49.5001 57.5559 48.9576 57.5559C48.4313 57.5559 47.9479 57.4832 47.5073 57.3379C47.0708 57.1926 46.6915 56.9822 46.3692 56.7067C46.051 56.4312 45.8042 56.0967 45.6288 55.7031C45.4533 55.3096 45.3656 54.8646 45.3656 54.3681V53.9503C45.3656 53.4538 45.4513 53.0103 45.6226 52.6198C45.7981 52.2262 46.0449 51.8917 46.3631 51.6162C46.6813 51.3377 47.0586 51.1258 47.4951 50.9805C47.9357 50.8352 48.4191 50.7625 48.9453 50.7625C49.4879 50.7625 49.9774 50.8352 50.4139 50.9805C50.8545 51.1258 51.2319 51.3377 51.546 51.6162C51.8642 51.8917 52.1069 52.2262 52.2742 52.6198C52.4455 53.0103 52.5312 53.4538 52.5312 53.9503ZM51.3624 54.3681V53.9412C51.3624 53.5477 51.3073 53.1995 51.1972 52.8968C51.0911 52.5941 50.9341 52.3398 50.726 52.1339C50.518 51.928 50.263 51.7721 49.9611 51.6662C49.6633 51.5602 49.3247 51.5072 48.9453 51.5072C48.5782 51.5072 48.2457 51.5602 47.9479 51.6662C47.6542 51.7721 47.4013 51.928 47.1891 52.1339C46.9811 52.3398 46.82 52.5941 46.7057 52.8968C46.5915 53.1995 46.5344 53.5477 46.5344 53.9412V54.3681C46.5344 54.7647 46.5915 55.1158 46.7057 55.4216C46.82 55.7243 46.9831 55.9801 47.1953 56.189C47.4115 56.3949 47.6664 56.5508 47.9602 56.6567C48.258 56.7627 48.5904 56.8157 48.9576 56.8157C49.341 56.8157 49.6817 56.7627 49.9795 56.6567C50.2773 56.5508 50.5282 56.3949 50.7321 56.189C50.9402 55.9801 51.0972 55.7243 51.2033 55.4216C51.3094 55.1158 51.3624 54.7647 51.3624 54.3681Z" fill="black"/>
<path d="M64.9188 53.9503V54.3681C64.9188 54.8646 64.8351 55.3096 64.6679 55.7031C64.5006 56.0967 64.2599 56.4312 63.9458 56.7067C63.6317 56.9822 63.2544 57.1926 62.8138 57.3379C62.3773 57.4832 61.8877 57.5559 61.3452 57.5559C60.8189 57.5559 60.3355 57.4832 59.8949 57.3379C59.4584 57.1926 59.0791 56.9822 58.7568 56.7067C58.4386 56.4312 58.1918 56.0967 58.0164 55.7031C57.841 55.3096 57.7532 54.8646 57.7532 54.3681V53.9503C57.7532 53.4538 57.8389 53.0103 58.0102 52.6198C58.1857 52.2262 58.4325 51.8917 58.7507 51.6162C59.0689 51.3377 59.4462 51.1258 59.8827 50.9805C60.3233 50.8352 60.8067 50.7625 61.3329 50.7625C61.8755 50.7625 62.365 50.8352 62.8015 50.9805C63.2421 51.1258 63.6195 51.3377 63.9336 51.6162C64.2518 51.8917 64.4945 52.2262 64.6618 52.6198C64.8331 53.0103 64.9188 53.4538 64.9188 53.9503ZM63.75 54.3681V53.9412C63.75 53.5477 63.6949 53.1995 63.5848 52.8968C63.4787 52.5941 63.3217 52.3398 63.1136 52.1339C62.9056 51.928 62.6506 51.7721 62.3487 51.6662C62.0509 51.5602 61.7123 51.5072 61.3329 51.5072C60.9658 51.5072 60.6333 51.5602 60.3355 51.6662C60.0418 51.7721 59.7889 51.928 59.5767 52.1339C59.3687 52.3398 59.2076 52.5941 59.0933 52.8968C58.9791 53.1995 58.922 53.5477 58.922 53.9412V54.3681C58.922 54.7647 58.9791 55.1158 59.0933 55.4216C59.2076 55.7243 59.3707 55.9801 59.5829 56.189C59.7991 56.3949 60.054 56.5508 60.3478 56.6567C60.6456 56.7627 60.978 56.8157 61.3452 56.8157C61.7287 56.8157 62.0693 56.7627 62.3671 56.6567C62.6649 56.5508 62.9158 56.3949 63.1197 56.189C63.3278 55.9801 63.4848 55.7243 63.5909 55.4216C63.697 55.1158 63.75 54.7647 63.75 54.3681Z" fill="black"/>
<path d="M72.8578 57.465H70.9975L71.0098 56.7521H72.8578C73.4941 56.7521 74.0245 56.6537 74.4487 56.4569C74.873 56.2571 75.1912 55.9786 75.4033 55.6214C75.6195 55.2611 75.7276 54.8403 75.7276 54.359V53.9548C75.7276 53.5764 75.6664 53.2404 75.5441 52.9467C75.4217 52.6501 75.2422 52.4003 75.0056 52.1975C74.769 51.9916 74.4793 51.8357 74.1367 51.7297C73.7981 51.6238 73.4085 51.5708 72.9679 51.5708H70.9608V50.8533H72.9679C73.5513 50.8533 74.0836 50.926 74.565 51.0713C75.0464 51.2136 75.4604 51.421 75.8072 51.6934C76.158 51.9629 76.4273 52.2898 76.6149 52.6743C76.8026 53.0557 76.8964 53.4856 76.8964 53.9639V54.359C76.8964 54.8373 76.8026 55.2687 76.6149 55.6532C76.4273 56.0346 76.156 56.3601 75.8011 56.6295C75.4502 56.8989 75.026 57.1063 74.5283 57.2516C74.0347 57.3939 73.4778 57.465 72.8578 57.465ZM71.6278 50.8533V57.465H70.4468V50.8533H71.6278Z" fill="black"/>
</g>
</g>
</svg>
