<svg width="205" height="161" viewBox="0 0 205 161" fill="none" xmlns="http://www.w3.org/2000/svg">
<g id="Logo">
<path id="Vector" d="M175.25 18.7505C164.916 11.6335 152.445 6.02246 138.762 2.67046C135.374 1.87246 131.975 1.11845 128.456 0.607452C128.33 0.582452 128.179 0.579458 128.05 0.556458C123.053 4.24646 118.453 8.31545 114.314 12.6875C118.904 12.0185 123.582 11.5895 128.36 11.4185C145.054 10.8045 160.926 13.5385 175.25 18.7505Z" fill="black"/>
<path id="Vector_2" d="M110.052 52.1264C116.542 47.3284 123.649 43.0414 131.319 39.4194C150.214 30.5014 169.994 26.7394 188.658 27.5544C172.588 20.4614 154.148 16.7264 134.654 17.4324C125.043 17.7844 115.764 19.1994 106.968 21.5254C102.586 27.4154 98.9605 33.7484 96.2075 40.4124C100.448 44.5824 105.072 48.5114 110.052 52.1264Z" fill="black"/>
<path id="Vector_3" d="M90.0974 70.7146C95.2244 64.6926 101.106 59.1096 107.623 54.0276C103.118 50.7976 98.9064 47.3216 94.9924 43.6456C91.8534 52.2336 90.1284 61.3186 90.0974 70.7146Z" fill="black"/>
<path id="Vector_4" d="M94.9055 35.8824C97.0775 31.3814 99.4795 27.0764 102.074 22.9764C96.5395 24.6854 91.1885 26.7254 86.1055 29.1364C88.5175 32.2124 91.1255 35.1834 93.8965 38.0624C94.2265 37.3294 94.5575 36.6054 94.9055 35.8824Z" fill="black"/>
<path id="Vector_5" d="M204.033 109.73C203.801 109.73 203.572 109.737 203.334 109.737C193.743 109.737 186.79 103.602 186.79 95.1414V94.9544C186.79 86.8644 193.757 80.5274 202.653 80.5274C203.127 80.5274 203.591 80.5444 204.033 80.5684V70.8484C203.62 70.8304 203.194 70.8304 202.764 70.8304C185.347 70.8304 172.196 81.2724 172.196 95.1404V95.3214C172.196 108.843 185.521 119.443 202.542 119.443C203.06 119.443 203.539 119.433 204.033 119.418V109.73Z" fill="black"/>
<path id="Vector_6" d="M27.8865 89.3593C17.6035 87.1703 16.1575 86.1123 16.1575 82.8633V82.7163C16.1575 80.3193 18.7975 78.4163 23.8045 78.4163C26.3625 78.4163 29.7005 79.1073 32.0415 79.9773V69.6093C29.8635 69.2343 26.5185 68.8013 23.9785 68.8013C11.8275 68.8013 3.16354 74.7393 3.16354 83.7183V83.8543C3.16354 93.6703 10.8885 96.4253 22.8735 98.9703C32.8155 101.091 33.7535 102.5 33.7535 105.259V105.398C33.7535 108.294 30.5235 110.057 25.1685 110.057C18.3685 110.057 13.8665 107.729 8.51553 104.056L0.780518 111.755C7.91952 117.052 15.9065 119.669 24.9135 119.669C37.7435 119.669 46.7545 114.161 46.7545 104.339V104.202C46.7535 95.5803 39.9445 91.9753 27.8865 89.3593Z" fill="black"/>
<path id="Vector_7" d="M57.8625 93.7364C58.8915 88.5144 62.4005 85.1074 67.7895 85.1074C73.2555 85.1074 76.6805 88.5894 77.4545 93.7364H57.8625ZM67.7905 75.8824C54.4445 75.8824 45.1245 85.4214 45.1245 96.9824V97.1334C45.1245 109.537 55.3005 118.084 69.0715 118.084C69.4685 118.084 70.7465 118.033 71.1425 118.023V108.78C70.8155 108.797 69.5805 108.858 69.2365 108.858C63.4215 108.858 59.3185 106.136 58.0295 100.919H89.6585C89.7345 99.8554 89.8225 99.1764 89.8225 98.0334V97.8974C89.8215 86.3944 83.0935 75.8824 67.7905 75.8824Z" fill="black"/>
<path id="Vector_8" d="M131.068 95.8734C131.068 84.9094 124.363 76.3484 110.18 76.3484C95.9794 76.3484 89.2744 84.9084 89.2744 95.8734V117.338H102.412V95.0785C102.654 91.0245 104.25 86.2295 110.181 86.2295C116.097 86.2295 117.824 91.0245 118.055 95.0785V117.338H131.069L131.068 95.8734Z" fill="black"/>
<path id="Vector_9" d="M152.438 76.1146C151.861 76.1146 149.873 76.1216 149.331 76.1396V85.9475C151.861 85.9705 155.33 86.4016 156.878 87.2086C159.147 88.4096 160.321 90.4226 160.379 93.1476C157.284 92.7886 153.774 92.5395 150.729 92.4605C138.315 92.1375 132.179 96.2476 130.948 102.816C130.925 102.941 130.902 103.065 130.879 103.187C130.872 103.232 130.87 103.272 130.862 103.316C130.763 103.944 130.708 104.602 130.708 105.301V105.448C130.708 113.476 137.809 117.865 146.438 117.865C152.771 117.865 157.136 115.812 160.294 112.712V117.383H172.865V93.5826C172.866 82.6075 166.625 76.1146 152.438 76.1146ZM160.424 102.911C159.295 108.839 153.177 109.728 151.789 109.796C141.895 110.321 141.545 103.555 144.87 101.496C149.341 98.7225 160.466 100.278 160.466 100.278C160.466 100.687 160.568 101.693 160.424 102.911Z" fill="black"/>
<g id="FOOD">
<path d="M70.0422 131.791V148.853H67.7805V131.791H70.0422ZM77.1907 139.467V141.318H69.55V139.467H77.1907ZM78.3508 131.791V133.642H69.55V131.791H78.3508Z" fill="black"/>
<path d="M101.383 139.783V140.861C101.383 142.142 101.223 143.291 100.902 144.306C100.582 145.322 100.121 146.185 99.5196 146.896C98.918 147.607 98.1954 148.15 97.3516 148.525C96.5157 148.9 95.5782 149.088 94.5391 149.088C93.5313 149.088 92.6055 148.9 91.7618 148.525C90.9258 148.15 90.1993 147.607 89.5821 146.896C88.9727 146.185 88.5 145.322 88.1641 144.306C87.8282 143.291 87.6602 142.142 87.6602 140.861V139.783C87.6602 138.502 87.8243 137.357 88.1524 136.349C88.4883 135.334 88.961 134.471 89.5704 133.76C90.1797 133.041 90.9024 132.494 91.7383 132.119C92.5821 131.744 93.5079 131.556 94.5157 131.556C95.5547 131.556 96.4922 131.744 97.3282 132.119C98.1719 132.494 98.8946 133.041 99.4961 133.76C100.106 134.471 100.57 135.334 100.891 136.349C101.219 137.357 101.383 138.502 101.383 139.783ZM99.1446 140.861V139.76C99.1446 138.744 99.0391 137.846 98.8282 137.064C98.625 136.283 98.3243 135.627 97.9258 135.096C97.5274 134.564 97.0391 134.162 96.461 133.888C95.8907 133.615 95.2422 133.478 94.5157 133.478C93.8125 133.478 93.1758 133.615 92.6055 133.888C92.043 134.162 91.5586 134.564 91.1524 135.096C90.754 135.627 90.4454 136.283 90.2266 137.064C90.0079 137.846 89.8985 138.744 89.8985 139.76V140.861C89.8985 141.885 90.0079 142.791 90.2266 143.58C90.4454 144.361 90.7579 145.021 91.1641 145.56C91.5782 146.092 92.0665 146.494 92.629 146.767C93.1993 147.041 93.836 147.178 94.5391 147.178C95.2735 147.178 95.9258 147.041 96.4961 146.767C97.0665 146.494 97.5469 146.092 97.9375 145.56C98.336 145.021 98.6368 144.361 98.8399 143.58C99.043 142.791 99.1446 141.885 99.1446 140.861Z" fill="black"/>
<path d="M125.106 139.783V140.861C125.106 142.142 124.946 143.291 124.626 144.306C124.306 145.322 123.845 146.185 123.243 146.896C122.641 147.607 121.919 148.15 121.075 148.525C120.239 148.9 119.302 149.088 118.263 149.088C117.255 149.088 116.329 148.9 115.485 148.525C114.649 148.15 113.923 147.607 113.306 146.896C112.696 146.185 112.223 145.322 111.888 144.306C111.552 143.291 111.384 142.142 111.384 140.861V139.783C111.384 138.502 111.548 137.357 111.876 136.349C112.212 135.334 112.684 134.471 113.294 133.76C113.903 133.041 114.626 132.494 115.462 132.119C116.306 131.744 117.231 131.556 118.239 131.556C119.278 131.556 120.216 131.744 121.052 132.119C121.895 132.494 122.618 133.041 123.22 133.76C123.829 134.471 124.294 135.334 124.614 136.349C124.942 137.357 125.106 138.502 125.106 139.783ZM122.868 140.861V139.76C122.868 138.744 122.763 137.846 122.552 137.064C122.348 136.283 122.048 135.627 121.649 135.096C121.251 134.564 120.763 134.162 120.184 133.888C119.614 133.615 118.966 133.478 118.239 133.478C117.536 133.478 116.899 133.615 116.329 133.888C115.766 134.162 115.282 134.564 114.876 135.096C114.477 135.627 114.169 136.283 113.95 137.064C113.731 137.846 113.622 138.744 113.622 139.76V140.861C113.622 141.885 113.731 142.791 113.95 143.58C114.169 144.361 114.481 145.021 114.888 145.56C115.302 146.092 115.79 146.494 116.352 146.767C116.923 147.041 117.559 147.178 118.263 147.178C118.997 147.178 119.649 147.041 120.22 146.767C120.79 146.494 121.27 146.092 121.661 145.56C122.059 145.021 122.36 144.361 122.563 143.58C122.766 142.791 122.868 141.885 122.868 140.861Z" fill="black"/>
<path d="M140.31 148.853H136.748L136.771 147.013H140.31C141.529 147.013 142.545 146.76 143.357 146.252C144.17 145.736 144.779 145.017 145.185 144.096C145.599 143.166 145.806 142.08 145.806 140.838V139.795C145.806 138.818 145.689 137.951 145.455 137.193C145.22 136.428 144.877 135.783 144.423 135.26C143.97 134.728 143.416 134.326 142.759 134.053C142.111 133.779 141.365 133.642 140.521 133.642H136.677V131.791H140.521C141.638 131.791 142.658 131.978 143.58 132.353C144.502 132.721 145.295 133.256 145.959 133.959C146.631 134.654 147.146 135.498 147.506 136.49C147.865 137.474 148.045 138.584 148.045 139.818V140.838C148.045 142.072 147.865 143.185 147.506 144.178C147.146 145.162 146.627 146.002 145.947 146.697C145.275 147.392 144.463 147.928 143.509 148.303C142.564 148.67 141.498 148.853 140.31 148.853ZM137.955 131.791V148.853H135.693V131.791H137.955Z" fill="black"/>
</g>
</g>
</svg>
